<?xml version="1.0" encoding="utf-8"?>
<!-- Generator: Adobe Illustrator 16.0.0, SVG Export Plug-In . SVG Version: 6.00 Build 0)  -->
<!DOCTYPE svg PUBLIC "-//W3C//DTD SVG 1.1//EN" "http://www.w3.org/Graphics/SVG/1.1/DTD/svg11.dtd">
<svg version="1.1" id="Layer_1" xmlns="http://www.w3.org/2000/svg" xmlns:xlink="http://www.w3.org/1999/xlink" x="0px" y="0px"
	 width="64px" height="64px" viewBox="0 0 64 64" enable-background="new 0 0 64 64" xml:space="preserve">
<g id="Hoodie">
	<path fill="#333433" d="M33.163,24.159c0.062-0.254,0.092-0.45,0.106-0.575C33.225,23.767,33.189,23.958,33.163,24.159z"/>
	<path fill="#4285F4" d="M32.604,13.582c0.244-0.013,5.015-0.155,7.576,2.613c-0.098-0.401-0.258-0.634-0.258-0.634
		c-4.105-7.481-7.483-7.945-7.483-7.945c-2.96,1.139-6.115,6.488-6.94,7.961C26.787,14.668,28.963,13.775,32.604,13.582z"/>
	<path fill="#556567" d="M32.65,14.624c-4.958,0.263-6.883,1.875-7.583,2.779c0.121,1.249,1.039,2.198,1.688,2.725
		c1.289,0.175,4.588,0.811,5.165,2.766c0.008,0.026,0.014,0.053,0.017,0.081c0.001,0.009,0.061,0.449,0.182,1.101
		c0.015-0.126,0.026-0.254,0.048-0.374c-0.033-0.067-0.057-0.14-0.058-0.22c-0.024-1.329-0.639-1.742-1.567-2.367
		c-0.5-0.336-1.067-0.717-1.599-1.296c-1.67-1.823-0.917-3.543-0.884-3.615c0.118-0.263,0.43-0.378,0.689-0.259
		c0.261,0.118,0.377,0.424,0.261,0.685c-0.023,0.059-0.48,1.194,0.702,2.485c0.447,0.487,0.938,0.817,1.412,1.136
		c0.643,0.432,1.294,0.881,1.68,1.662c0.825-1.474,2.156-2.276,3.036-2.801c0.132-0.079,0.252-0.15,0.359-0.218
		c0.521-0.33,0.323-1.525-0.036-2.533c-0.098-0.271,0.045-0.57,0.314-0.667c0.274-0.095,0.569,0.046,0.668,0.317
		c0.66,1.852,0.521,3.188-0.391,3.765c-0.113,0.072-0.242,0.149-0.382,0.232c-0.944,0.564-2.332,1.397-2.949,3.067
		c1.201-2.417,4.61-2.976,4.761-2.998c0.029-0.005,0.058,0.004,0.088,0.004c1.021-0.828,1.551-1.606,1.791-2.276
		C38.172,14.459,32.711,14.615,32.65,14.624z"/>
	<g>
		<path fill="#E7533C" d="M17.71,49.186l4.585-14.217l0.164,17.53c0,0-0.055,0.969,0.459,1.694c0.227,0.043,0.559,0.094,0.75,0.121
			c0.195,0.031,0.356,0.057,0.428,0.069c0.031,0.009,3.322,0.662,7.614,0.606c-0.683-5.691-0.018-26.397,0.035-27.993
			c-0.539-1.787-0.792-3.535-0.835-3.845c-0.331-0.997-2.144-1.578-3.513-1.856l-0.005,0.358l-7.729,3.438l-6.459,23.256
			L17.71,49.186z M24.316,47.216l2.931-5.097c0.143-0.251,0.462-0.337,0.712-0.192c0.249,0.144,0.335,0.462,0.191,0.712l-2.93,5.098
			c-0.097,0.168-0.272,0.262-0.452,0.262c-0.088,0-0.178-0.021-0.26-0.068C24.26,47.785,24.173,47.466,24.316,47.216z"/>
		<path fill="#E7533C" d="M40.105,53.846c0.476-0.164,1.302-0.465,1.629-0.617c0.039-0.131,0.065-0.258,0.07-0.369l0.164-17.891
			l4.569,14.17l4.53-0.748L44.6,25.093l-6.871-3.465l-0.146-0.342c-0.98,0.284-2.633,0.949-3.266,2.317
			c-0.043,0.433-0.297,2.122-1.533,3.526c-0.066,2.044-0.702,22.553-0.029,27.828C35.432,54.852,37.906,54.486,40.105,53.846z
			 M36.036,41.927c0.248-0.145,0.567-0.059,0.711,0.192l2.931,5.097c0.143,0.25,0.057,0.568-0.191,0.712
			c-0.082,0.047-0.172,0.069-0.26,0.069c-0.182,0-0.356-0.095-0.453-0.263l-2.93-5.098C35.699,42.389,35.786,42.07,36.036,41.927z"
			/>
		<path fill="#4285F4" d="M13.234,49.414c-0.284,0.646-0.688,1.679-0.54,2.044l3.602,0.653c0,0,0.478-1.023,0.824-1.976
			L13.234,49.414z"/>
		<path fill="#4285F4" d="M47.236,50.08c0.347,0.947,0.843,2.002,0.843,2.002l3.53-0.643c0.142-0.351-0.254-1.346-0.545-1.991
			L47.236,50.08z"/>
		<path fill="#4285F4" d="M40.422,54.839c-2.438,0.709-5.152,1.104-8.099,1.185c-0.383,0.011-0.759,0.017-1.125,0.017
			c-4.133,0-7.174-0.604-7.313-0.633c-0.065-0.015-0.205-0.033-0.374-0.06c-0.001,0-0.003-0.002-0.004-0.002
			c0,0.256-0.003,0.602-0.015,1.07c0,0,5.352,2.133,17.701-0.305v-1.549C40.848,54.691,40.533,54.802,40.422,54.839z"/>
	</g>
</g>
</svg>
