<?xml version="1.0" encoding="utf-8"?>
<!-- Generator: Adobe Illustrator 16.0.0, SVG Export Plug-In . SVG Version: 6.00 Build 0)  -->
<!DOCTYPE svg PUBLIC "-//W3C//DTD SVG 1.1//EN" "http://www.w3.org/Graphics/SVG/1.1/DTD/svg11.dtd">
<svg version="1.1" id="Layer_1" xmlns="http://www.w3.org/2000/svg" xmlns:xlink="http://www.w3.org/1999/xlink" x="0px" y="0px"
	 width="64px" height="64px" viewBox="0 0 64 64" enable-background="new 0 0 64 64" xml:space="preserve">
<g>

		<path fill="#72CACA" stroke="#494949" stroke-width="1.5" stroke-linecap="round" stroke-linejoin="round" stroke-miterlimit="10" d="
		M31.979,56.87c6.358,0.106,13.091-0.702,13.091-0.702c0-19.234,0.431-27.94,0.431-27.94l2.578,2.739l7.522-6.338l-5.804-8.759
		c-2.417-3.169-4.028-3.761-4.028-3.761l-7.845-3.225c-2.633,1.881-5.945,1.743-5.945,1.743h-0.29c0,0-3.313,0.138-5.946-1.743
		l-7.847,3.225c0,0-1.612,0.592-4.027,3.761l-5.805,8.759l7.523,6.338l2.578-2.739c0,0,0.431,8.706,0.431,27.94
		c0,0,6.733,0.809,13.092,0.702H31.979z"/>

		<path fill="#60A8A6" stroke="#494949" stroke-width="1.5" stroke-linecap="round" stroke-linejoin="round" stroke-miterlimit="10" d="
		M47.699,13.505c0.593,0.556,1.302,1.32,2.099,2.364l5.804,8.759l-7.522,6.338l-2.578-2.739C45.07,17.858,47.7,13.506,47.699,13.505
		L47.699,13.505z"/>

		<path fill="#60A8A6" stroke="#494949" stroke-width="1.5" stroke-linecap="round" stroke-linejoin="round" stroke-miterlimit="10" d="
		M15.968,13.505c-0.592,0.556-1.302,1.32-2.099,2.364l-5.804,8.759l7.523,6.338l2.578-2.739
		C18.598,17.858,15.968,13.506,15.968,13.505L15.968,13.505z"/>
	<path fill="none" stroke="#494949" stroke-width="1.5" stroke-linecap="round" stroke-linejoin="round" stroke-miterlimit="10" d="
		M25.745,8.884c0,0,1.575,4.894,5.946,4.787h0.289c4.37,0.107,5.945-4.787,5.945-4.787l3.688,1.517
		c-0.25,0.908-2.217,7.068-9.587,7.066H31.64c-7.372,0.002-9.337-6.164-9.586-7.067v0.001L25.745,8.884z"/>

		<path fill="#60A8A6" stroke="#494949" stroke-width="1.5" stroke-linecap="round" stroke-linejoin="round" stroke-miterlimit="10" d="
		M37.924,8.884c0,0-1.576,4.894-5.945,4.787H31.69c-4.371,0.107-5.946-4.787-5.946-4.787c2.633,1.881,5.946,1.743,5.946,1.743h0.289
		C31.979,10.627,35.292,10.765,37.924,8.884z"/>
</g>
</svg>
